# xmcd
#
# Track frame offsets: 
#        182
#        17332
#        30832
#        49372
#        97415
#        105942
#        122800
#        139892
#        159752
#        171070
#        183455
#        200397
#        217662
#        231122
#        259735
#        275975
#        294162
#        314265
#
# Disc length: 4588 seconds
#
# Revision: 5
# Processed by: cddbd v1.5.2PL0 Copyright (c) Steve Scherf et al.
# Submitted via: ExactAudioCopy v0.99pb4
#
DISCID=f411ea12
DTITLE=Various Artist - Blues Guitar Heroes
DYEAR=1983
DGENRE=Blues
TTITLE0=Buddy Guy - Junior Wells - We're Ready
TTITLE1=Earl Hooker - Blues for Dancers
TTITLE2=Byther Smith - Come On in This House
TTITLE3=Jimi Hendrix - Red House
TTITLE4=Jonnny 'Guitar' Watson - Looking Back
TTITLE5=Albert Collins - The Things I Used to Do
TTITLE6=John Lee Hooker - Goin' Mad Blues
TTITLE7=Fenton Robinson - Somebody Loan Me a Dime
TTITLE8=Ike Turner - Ho-Ho
TTITLE9=Buddy Guy - You Sure Can't Do
TTITLE10=Peter Green and Mick Green - Chinese White Boy
TTITLE11=Matt 'Guitar' Murphy - Taking Off
TTITLE12=Mississippi Fred McDowell - I Asked for Whiskey
TTITLE13=Billy Boy Arnold and Tony McPhee - Blue and Lonesome
TTITLE14=U.P. Wilson - 7 Comes 11
TTITLE15=Roy Gaines and The Crusaders - A Hell of a Night
TTITLE16=Earl Hooker - End of the Blues
TTITLE17=Luther Allison - You Upset Me Baby
EXTD=
EXTT0=
EXTT1=
EXTT2=
EXTT3=
EXTT4=
EXTT5=
EXTT6=
EXTT7=
EXTT8=
EXTT9=
EXTT10=
EXTT11=
EXTT12=
EXTT13=
EXTT14=
EXTT15=
EXTT16=
EXTT17=
PLAYORDER=
